		<svg class="losange" version="1.1" xmlns="http://www.w3.org/2000/svg" xmlns:xlink="http://www.w3.org/1999/xlink" x="0px" y="0px"
			 viewBox="0 0 590.3 589.3" width="500" height="500" style="enable-background:new 0 0 590.3 589.3;" xml:space="preserve">
			<g id="Calque_2">
			
				<rect id="XMLID_39_" x="92.2" y="91.3" transform="matrix(0.7071 -0.7071 0.7071 0.7071 -122.9694 298.2463)" class="st1" width="412.6" height="412.6"/>
			
				<g id="Calque_7" class="gouttes">
					<g id="XMLID_41_">
						<path id="XMLID_145_" d="M298.4,17.2c11,11.5,13.7,18.2,9.6,23.9c-2.2,3-5.8,4.8-9.6,4.8c-3.5,0-6.7-1.5-9-4
							C284.4,36.2,286.8,29.5,298.4,17.2 M298.4,15.8c-11.1,11.6-15.9,19.7-9.8,26.8c2.5,2.9,6.1,4.4,9.7,4.4c4,0,7.9-1.8,10.5-5.2
							C313.7,35,309.5,27.1,298.4,15.8L298.4,15.8z"/>
					</g>
					<g id="XMLID_33_">
						<path id="XMLID_141_" d="M298.2,549L298.2,549c3.5,0,6.7,1.5,9,4c5,5.7,2.5,12.4-9,24.7c-11-11.5-13.7-18.2-9.6-23.9
							C290.8,550.8,294.4,549,298.2,549 M298.2,548c-4,0-7.9,1.8-10.5,5.2c-4.9,6.7-0.7,14.6,10.4,25.9c11.1-11.6,15.9-19.7,9.8-26.8
							C305.4,549.5,301.8,548,298.2,548L298.2,548z"/>
					</g>
					<g id="XMLID_36_">
						<path id="XMLID_137_" d="M36.4,285.7l0,1h0c1.9,0,3.7,0.6,5.4,1.9c2.9,2.1,4.6,5.4,4.8,9.1c0.2,3.7-1.3,7.1-4,9.5
							c-1.9,1.6-3.9,2.4-6,2.4c-4.6,0-10.2-3.4-18.7-11.5c8.2-7.9,13.9-11.4,18.5-11.4L36.4,285.7 M36.4,285.7c-5.4,0-11.8,4.4-20,12.4
							c8.1,7.8,14.6,12.5,20.1,12.5c2.4,0,4.6-0.9,6.7-2.7c6.1-5.3,5.7-15.4-0.8-20.2C40.5,286.4,38.5,285.7,36.4,285.7L36.4,285.7z"/>
					</g>
					<g id="XMLID_29_">
						<path id="XMLID_133_" d="M559.3,286.1L559.3,286.1c4.6,0,10.2,3.4,18.7,11.5c-8.2,7.9-13.9,11.4-18.5,11.4
							c-1.9,0-3.7-0.6-5.4-1.9c-2.9-2.1-4.6-5.4-4.8-9.1c-0.2-3.7,1.3-7.1,4-9.5C555.2,286.9,557.2,286.1,559.3,286.1 M559.3,285.1
							c-2.4,0-4.6,0.9-6.7,2.7c-6.1,5.3-5.7,15.4,0.8,20.2c1.9,1.4,3.8,2,6,2c5.4,0,11.8-4.4,20-12.4
							C571.3,289.8,564.9,285.1,559.3,285.1L559.3,285.1z"/>
					</g>
				</g>
			</g>
				<g id="Calque_1">
					<g id="Calque_5">
						<g id="XMLID_421_">
							<path id="XMLID_129_" d="M300.6,257.1c0.2,0,0.4,0.1,0.6,0.3c5.9,10.2,16.7,12.9,12.1,28.4c-0.1,0.4,0.2,0.8,0.6,0.8
								c0.1,0,0.1,0,0.2,0c2.2-0.5,4.1-0.8,5.8-0.8c9.1,0,11.6,7,19,11.1c0.4,0.3,0.5,0.9,0,1.1c-7.4,4.4-9.3,11.9-19.1,11.9
								c-1.8,0-4-0.3-6.4-0.9c-0.1,0-0.1,0-0.2,0c-0.4,0-0.8,0.4-0.6,0.9c5.5,14.3-7.3,16.4-11.5,27c-0.1,0.3-0.4,0.4-0.6,0.4
								c-0.2,0-0.5-0.1-0.6-0.4c-4.3-10.7-15.1-14-11.4-27c0.1-0.4-0.2-0.8-0.6-0.8c-0.1,0-0.1,0-0.2,0c-2,0.7-3.8,1-5.4,1
								c-8.3,0-13.1-7.6-21.7-12.1c-0.5-0.3-0.5-0.9,0-1.2c9-4.1,10.6-12,21.4-12c1.8,0,3.8,0.2,6.1,0.7c0,0,0.1,0,0.1,0
								c0.4,0,0.8-0.4,0.6-0.9c-4.5-13.9,6.1-16.6,11.1-27.3C300.1,257.3,300.3,257.1,300.6,257.1 M300.6,256.1c-0.6,0-1.2,0.4-1.5,1
								c-1.6,3.5-3.9,6.1-6,8.6c-4.2,4.9-8.2,9.5-5.3,18.9c-2.1-0.4-4-0.6-5.8-0.6c-6.9,0-10.3,3.1-13.8,6.4c-2.2,2.1-4.6,4.2-8,5.7
								c-0.6,0.3-1,0.8-1,1.5c0,0.6,0.3,1.2,0.9,1.5c3.1,1.6,5.7,3.7,8.3,5.7c4.3,3.4,8.3,6.6,13.9,6.6c1.7,0,3.4-0.3,5.2-0.8
								c-2.2,8.4,1.6,12.9,5.6,17.7c2.2,2.7,4.6,5.5,6,9.3c0.2,0.6,0.8,1,1.5,1c0.7,0,1.3-0.4,1.5-1c1.4-3.6,4-6.3,6.4-8.8
								c4.5-4.6,8.7-9,5.3-18.4c2.2,0.5,4.2,0.7,6,0.7c6.7,0,9.9-3.3,13.3-6.7c1.8-1.9,3.7-3.8,6.3-5.3c0.5-0.3,0.8-0.8,0.8-1.4
								c0-0.6-0.3-1.1-0.9-1.4c-2.6-1.4-4.5-3.2-6.4-5c-3.5-3.2-6.8-6.3-13.1-6.3c-1.7,0-3.5,0.2-5.5,0.7c3-10.9-1.5-15.8-6.3-20.9
								c-2.1-2.3-4.3-4.6-6-7.6C301.7,256.4,301.2,256.1,300.6,256.1L300.6,256.1z"/>
						</g>
<!-- 						<path id="XMLID_420_" class="st1" d="M296.9,271.2c3.2-2.5,6.4-2.5,9.6,0l-4.8,6.5L296.9,271.2z"/>
						<path id="XMLID_419_" class="st1" d="M317,277.6c3.7,0.4,5.7,2.4,6.1,6.1l-7.3,1.2L317,277.6z"/>
						<path id="XMLID_418_" class="st1" d="M326.3,291.8c2.8,3,2.8,5.9,0,8.9l-7.3-4.4L326.3,291.8z"/>
						<path id="XMLID_417_" class="st1" d="M322.7,312.4c-0.2,4.2-2.4,6.4-6.6,6.6l-1.9-8.5L322.7,312.4z"/>
						<path id="XMLID_416_" class="st1" d="M305.1,322.8c-3.2,2.8-6.4,2.8-9.6,0l4.8-7.3L305.1,322.8z"/>
						<path id="XMLID_415_" class="st1" d="M285.5,318.7c-3.9-0.3-6-2.4-6.3-6.3l7.9-1.6L285.5,318.7z"/>
						<path id="XMLID_414_" class="st1" d="M275.4,301.5c-2.6-3-2.6-5.9,0-8.9l6.7,4.5L275.4,301.5z"/>
						<path id="XMLID_413_" class="st1" d="M278.3,282.6c0.5-4.2,2.9-6.6,7.2-7.2l1.1,8.3L278.3,282.6z"/> -->
						<circle id="XMLID_62_" class="st1" cx="300.6" cy="297.6" r="17.1"/>
						<g id="XMLID_27_">
							<path id="XMLID_125_" d="M279.7,247.4c6.7,0,13.6,2.3,19.9,6.5l0.6,0.4l0.6-0.4c6.2-4.1,12.5-6.1,18.9-6.1
								c10.4,0,20.1,5.8,25.2,15.1c5.6,10.2,4.9,22.6-1.8,33.4l-0.4,0.6l0.4,0.5c7.3,10,8.5,21,3.4,31.1c-5.4,10.6-16.7,17.7-28.2,17.7
								c-6.4,0-12.4-2.2-17.5-6.4l-0.7-0.6l-0.6,0.6c-4.6,4.6-10.3,7-16.7,7c-11,0-22.5-7.3-28-17.7c-5.4-10.2-4.5-21.4,2.5-31.7
								l0.4-0.5l-0.3-0.6c-7.3-11.8-8.4-24.3-2.8-34.3C259.4,253,269.1,247.4,279.7,247.4 M279.7,246.4c-22.6,0-39.7,24.2-23.3,50.4
								c-17.2,25.2,5,51,26.3,51c6.2,0,12.4-2.2,17.4-7.2c5.6,4.6,11.9,6.7,18.1,6.7c22.4,0,43.5-26.1,25.6-50.4c15-23.8-1.3-50-24.2-50
								c-6.2,0-12.8,1.9-19.5,6.3C293.3,248.5,286.2,246.4,279.7,246.4L279.7,246.4z"/>
						</g>
					</g>
					<g id="Calque_6">
						<g id="XMLID_357_">
							<path id="XMLID_121_" d="M300.7,227L300.7,227c3.5,0,6.7,1.5,9,4c5,5.7,2.5,12.4-9,24.7c-11-11.5-13.7-18.2-9.6-23.9
								C293.2,228.8,296.8,227,300.7,227 M300.7,226c-4,0-7.9,1.8-10.5,5.2c-4.9,6.7-0.7,14.6,10.4,25.9c11.1-11.6,15.9-19.7,9.8-26.8
								C307.9,227.4,304.3,226,300.7,226L300.7,226z"/>
						</g>
						<g id="XMLID_352_">
							<path id="XMLID_117_" d="M300.7,233.5L300.7,233.5c3.5,0,6.7,1.6,8.9,4.4c5,6.3,2.6,13.7-9,27.2c-11.1-12.6-13.7-20-9.5-26.3
								C293.3,235.5,296.9,233.5,300.7,233.5 M300.7,232.5c-4,0-7.9,1.9-10.5,5.7c-4.9,7.4-0.7,15.9,10.4,28.4
								c11.1-12.7,15.9-21.6,9.8-29.3C307.9,234.1,304.3,232.5,300.7,232.5L300.7,232.5z"/>
						</g>
						<g id="XMLID_347_">
							<path id="XMLID_113_" d="M359.2,285.1v1h0c1.9,0,3.7,0.6,5.4,1.9c2.9,2.1,4.6,5.4,4.8,9.1c0.2,3.7-1.3,7.1-4,9.5
								c-1.9,1.6-3.9,2.4-6,2.4c-4.6,0-10.2-3.4-18.7-11.5c8.2-7.9,13.9-11.4,18.5-11.4L359.2,285.1 M359.2,285.1
								c-5.4,0-11.8,4.4-20,12.4c8.1,7.8,14.6,12.5,20.1,12.5c2.4,0,4.6-0.9,6.7-2.7c6.1-5.3,5.7-15.4-0.8-20.2
								C363.2,285.8,361.3,285.1,359.2,285.1L359.2,285.1z"/>
						</g>
						<g id="XMLID_342_">
							<path id="XMLID_109_" d="M352.1,285.1v1h0c2.1,0,3.9,0.6,5.8,1.9c3.1,2.1,4.9,5.5,5.1,9.2c0.1,3.7-1.4,7.1-4.3,9.4
								c-2,1.7-4.1,2.5-6.5,2.5c-4.9,0-10.9-3.4-19.9-11.5c8.7-7.9,14.9-11.4,19.8-11.4L352.1,285.1 M352.1,285.1
								c-5.8,0-12.6,4.4-21.3,12.4c8.6,7.8,15.5,12.5,21.4,12.5c2.5,0,4.9-0.9,7.1-2.7c6.5-5.3,6.1-15.4-0.9-20.2
								C356.4,285.8,354.3,285.1,352.1,285.1L352.1,285.1z"/>
						</g>
						<g id="XMLID_337_">
							<path id="XMLID_105_" d="M300.7,339.3c11,11.5,13.7,18.2,9.6,23.9c-2.2,3-5.8,4.8-9.6,4.8c-3.5,0-6.7-1.5-9-4
								C286.7,358.2,289.1,351.5,300.7,339.3 M300.7,337.8c-11.1,11.6-15.9,19.7-9.8,26.8c2.5,2.9,6.1,4.4,9.7,4.4c4,0,7.9-1.8,10.5-5.2
								C316,357,311.7,349.2,300.7,337.8L300.7,337.8z"/>
						</g>
						<g id="XMLID_332_">
							<path id="XMLID_100_" d="M300.7,330.9c11.1,12,13.7,19.1,9.5,25c-2.2,3.1-5.8,5-9.6,5c-3.5,0-6.7-1.5-8.9-4.2
								C286.7,350.7,289.1,343.7,300.7,330.9 M300.7,329.4c-11.1,12.1-15.9,20.6-9.8,28c2.5,3,6.1,4.5,9.7,4.5c4,0,7.9-1.8,10.5-5.4
								C316,349.4,311.7,341.3,300.7,329.4L300.7,329.4z"/>
						</g>
						<g id="XMLID_327_">
							<path id="XMLID_96_" d="M240.1,286.1L240.1,286.1c4.6,0,10.2,3.4,18.7,11.5c-8.2,7.9-13.9,11.4-18.5,11.4c-1.9,0-3.7-0.6-5.4-1.9
								c-2.9-2.1-4.6-5.4-4.8-9.1c-0.2-3.7,1.3-7.1,4-9.5C235.9,286.9,237.9,286.1,240.1,286.1 M240.1,285.1c-2.4,0-4.6,0.9-6.7,2.7
								c-6.1,5.3-5.7,15.4,0.8,20.2c1.9,1.4,3.8,2,6,2c5.4,0,11.8-4.4,20-12.4C252,289.8,245.6,285.1,240.1,285.1L240.1,285.1z"/>
						</g>
						<g id="XMLID_322_">
							<path id="XMLID_92_" d="M247,286.1L247,286.1c4.9,0,10.9,3.4,20,11.5c-8.8,7.9-15,11.4-19.9,11.4c-2.1,0-4-0.6-5.8-1.9
								c-3.1-2.1-5-5.5-5.1-9.2c-0.1-3.6,1.4-7.1,4.3-9.4C242.5,286.9,244.7,286.1,247,286.1 M247,285.1c-2.5,0-4.9,0.9-7.1,2.7
								c-6.6,5.3-6.1,15.4,0.9,20.2c2,1.4,4.1,2,6.4,2c5.8,0,12.6-4.4,21.4-12.4C259.8,289.8,253,285.1,247,285.1L247,285.1z"/>
						</g>
					</g>
					<g id="Calque_4">
						<g id="XMLID_368_" class="cerclePique">
<!-- 							<path id="XMLID_88_" class="st3" d="M297.9,211.4l8.1,8.2l0.6,0.6l0.7-0.5l9.2-6.9l6.1,9.7l0.5,0.7l0.8-0.4l10.5-4.7l3.9,10.8
								l0.3,0.8l0.9-0.2l11.2-2.4l1.5,11.4l0.1,0.9l0.9,0l11.5,0.1l-1,11.4l-0.1,0.9l0.8,0.2l11.2,2.6l-3.5,11l-0.3,0.8l0.8,0.4
								l10.4,4.9l-5.7,10l-0.4,0.8l0.7,0.5l9.1,7l-7.7,8.5l-0.6,0.6l0.6,0.7l7.3,8.8l-9.4,6.6l-0.7,0.5l0.4,0.8l5.3,10.2l-10.6,4.5
								l-0.8,0.3l0.2,0.8l3,11.1l-11.3,2.1l-0.9,0.2l0,0.9l0.5,11.5l-11.5-0.4l-0.9,0l-0.1,0.9l-2,11.3l-11.1-2.9l-0.8-0.2l-0.3,0.8
								l-4.4,10.6l-10.3-5.2l-0.8-0.4l-0.5,0.7l-6.5,9.4l-8.9-7.3l-0.7-0.6l-0.6,0.6l-8.4,7.8l-7.1-9l-0.5-0.7l-0.8,0.4l-9.9,5.8
								l-5-10.3l-0.4-0.8l-0.8,0.3l-10.9,3.6l-2.7-11.2l-0.2-0.8l-0.9,0.1l-11.4,1.1l-0.2-11.5l0-0.9l-0.9-0.1l-11.4-1.4l2.3-11.3
								l0.2-0.9l-0.8-0.3l-10.8-3.8l4.6-10.5l0.4-0.8l-0.7-0.5l-9.8-6l6.8-9.3l0.5-0.7l-0.6-0.6l-8.3-8l8.6-7.6l0.7-0.6l-0.5-0.7
								l-6.3-9.6l10-5.6l0.8-0.4l-0.3-0.8l-4.1-10.7l11-3.3l0.8-0.2l-0.1-0.9l-1.7-11.4l11.5-0.8l0.9-0.1l0.1-0.9l0.7-11.5l11.4,1.6
								l0.9,0.1l0.2-0.8l3.2-11l10.8,4l0.8,0.3l0.4-0.8l5.5-10.1l9.6,6.3l0.7,0.5l0.6-0.7L297.9,211.4 M297.9,209.9l-8.2,9.5l-10.5-6.8
								l-6,11l-11.8-4.4l-3.5,12.1l-12.4-1.8l-0.8,12.5l-12.5,0.9l1.9,12.4l-12,3.6l4.5,11.7l-11,6.1l6.9,10.5l-9.4,8.3l9,8.7l-7.4,10.2
								l10.7,6.6l-5.1,11.5l11.9,4.1l-2.5,12.3l12.5,1.5l0.2,12.6l12.5-1.2l2.9,12.2l12-3.9l5.5,11.3l10.8-6.4l7.8,9.9l9.2-8.5l9.7,7.9
								L320,374l11.2,5.7L336,368l12.2,3.1l2.2-12.4l12.6,0.4l-0.6-12.6l12.4-2.3l-3.2-12.1l11.6-4.9l-5.8-11.2l10.3-7.3l-8-9.7l8.5-9.3
								l-9.9-7.7l6.3-10.9L373,266l3.8-12l-12.2-2.8l1.1-12.5l-12.6-0.1l-1.6-12.5l-12.3,2.6l-4.2-11.8l-11.5,5.2l-6.7-10.6l-10.1,7.5
								L297.9,209.9L297.9,209.9z"/>
 -->						</g>
						<g id="XMLID_363_" class="cerclePique">
	<!-- 						<path id="XMLID_84_" class="st3" d="M307,213.6l7.5,9.5l10.4-6.1l5.3,10.8l11.5-3.7l2.8,11.7l12-1.2l0.2,12.1l12,1.4l-2.4,11.8
								l11.4,4l-4.8,11.1l10.3,6.3l-7.1,9.8l8.7,8.4l-9,8l6.7,10.1l-10.5,5.9l4.4,11.3l-11.6,3.5l1.8,11.9l-12,0.9l-0.8,12l-11.9-1.7
								l-3.3,11.6l-11.3-4.2l-5.8,10.6l-10.1-6.6l-7.9,9.1l-8.5-8.6l-9.7,7.2l-6.4-10.2l-11,5l-4.1-11.4l-11.8,2.5l-1.5-12l-12.1-0.1
								l1.1-12l-11.8-2.7l3.6-11.5l-10.9-5.2l6-10.5l-9.5-7.4l8.1-8.9l-7.7-9.3l9.9-7l-5.6-10.7l11.1-4.7l-3.1-11.7l11.9-2.2l-0.5-12.1
								l12.1,0.4l2.1-11.9l11.7,3l4.6-11.2l10.8,5.4l6.9-9.9l9.4,7.6L307,213.6 M307.1,212.1l-0.8,0.7l-8.2,7.6l-8.7-7.1l-0.8-0.7
								l-0.6,0.9l-6.4,9.2l-10-5l-1-0.5l-0.4,1l-4.2,10.4l-10.8-2.8l-1-0.3l-0.2,1.1l-1.9,11l-11.2-0.4l-1.1,0l0,1.1l0.5,11.2l-11,2
								l-1.1,0.2l0.3,1l2.9,10.8l-10.3,4.4l-1,0.4l0.5,1l5.2,9.9l-9.1,6.5l-0.9,0.6l0.7,0.8l7.2,8.6l-7.5,8.3l-0.7,0.8l0.9,0.7l8.8,6.9
								l-5.6,9.7l-0.5,0.9l1,0.5l10.1,4.8l-3.4,10.7l-0.3,1l1.1,0.2l10.9,2.5l-1,11.2l-0.1,1.1l1.1,0l11.2,0.1l1.4,11.1l0.1,1.1l1.1-0.2
								l11-2.3l3.8,10.5l0.4,1l1-0.4l10.2-4.6l6,9.5l0.6,0.9l0.9-0.6l9-6.7l7.9,8l0.8,0.8l0.7-0.8l7.3-8.5l9.4,6.1l0.9,0.6l0.5-1
								l5.3-9.8l10.5,3.9l1,0.4l0.3-1l3.1-10.8l11.1,1.6l1.1,0.2l0.1-1.1l0.7-11.2l11.2-0.8l1.1-0.1l-0.2-1.1l-1.7-11.1l10.7-3.2l1-0.3
								l-0.4-1l-4-10.4l9.8-5.4l0.9-0.5l-0.6-0.9l-6.2-9.3l8.4-7.4l0.8-0.7l-0.8-0.8l-8.1-7.8l6.6-9l0.6-0.9l-0.9-0.6l-9.5-5.9l4.5-10.3
								l0.4-1l-1-0.4l-10.6-3.7l2.2-11l0.2-1.1l-1.1-0.1l-11.1-1.3l-0.2-11.2l0-1.1l-1.1,0.1l-11.1,1.1l-2.6-10.9l-0.3-1.1l-1,0.3
								l-10.6,3.5l-4.9-10.1l-0.5-1l-0.9,0.5l-9.6,5.7l-7-8.8L307.1,212.1L307.1,212.1z"/> -->
						</g>
						<g id="XMLID_358_">
							<path id="XMLID_80_" d="M300.1,209.9c47.9,0,86.9,39,86.9,86.9s-39,86.9-86.9,86.9s-86.9-39-86.9-86.9S252.2,209.9,300.1,209.9
								 M300.1,208.9c-48.6,0-87.9,39.4-87.9,87.9s39.4,87.9,87.9,87.9s87.9-39.4,87.9-87.9S348.7,208.9,300.1,208.9L300.1,208.9z"/>
						</g>
						<g id="XMLID_351_">
							<path id="XMLID_76_" d="M300.2,150.1c6.3,10.1,23.5,31,22.7,60.8c16.4-24.6,41.1-32.6,51.3-37.9c-0.7,11.3,2.4,35.9-11.8,60.9
								c28.2-12.8,47.7-11.2,58.9-11.5c-4.5,11-5.8,27.1-36.2,51.1c34.9,4.1,45,16.3,56.6,23c-10.5,7-19.9,18.2-56.8,22.7
								c27.9,22.8,29.8,34.2,37.9,49.2c-5.9,0.2-11.9,1.1-19,1.1c-10.7,0-23.6-1.9-42-10.8c17.9,40,12.9,50.8,13.5,58.9
								c-5.1-2.7-24.7-3.9-53.1-36.2c-1.3,39-18.2,53.1-23,60.7c-4.3-8-20-23.4-22.7-60.8c-21.3,33.9-41.3,39.5-49.1,44.2
								c-0.6-9.6-4.4-35.1,9.7-67.2c-16.9,7.4-31.3,9.3-42.2,9.3c-10.4,0-17.6-1.7-20.8-2c3.2-6.1,6.8-24.7,40.3-47
								c-40-3-50.8-19.2-56.6-23.1c6.2-2.9,15.9-14.2,56.8-22.6c-33.9-28.1-35.8-42.2-40-51.3c4.4,0,9.2-0.5,14.9-0.5
								c11.1,0,25.8,1.8,48.1,12.4c-13.5-31-6.8-50.8-9.3-65.1c10.8,9.7,29.7,14.6,48.9,42.4C277.7,178.7,295.5,160.1,300.2,150.1
								 M300,148l-0.8,1.7c-1,2.2-2.8,5-4.8,8.2c-6.8,10.6-17,26.5-18.1,49.9c-13-17.9-25.6-25.8-35.8-32.1c-4.5-2.8-8.4-5.2-11.6-8.1
								l-2.1-1.9l0.5,2.8c0.7,4.3,0.6,9.1,0.5,14.7c-0.3,12.4-0.6,27.8,7.8,48.3c-22-10.1-36.2-11.4-46.1-11.4c-3.2,0-6,0.1-8.8,0.3
								c-2.1,0.1-4.2,0.2-6.1,0.2l-1.5,0l0.6,1.4c0.6,1.2,1.1,2.6,1.7,4.1c3.6,9.1,9,22.7,37,46.3c-31.4,6.7-43.9,15.1-50.7,19.6
								c-1.7,1.1-3.1,2.1-4.3,2.6l-1.6,0.8l1.5,1c0.9,0.6,2,1.6,3.3,2.7c6.8,6.1,19.3,17.3,51,20.3c-27,18.6-33.6,34.7-36.9,42.5
								c-0.5,1.3-1,2.4-1.4,3.2l-0.7,1.3l1.5,0.1c0.9,0.1,2.1,0.2,3.6,0.5c3.9,0.6,9.7,1.5,17.3,1.5c13.3,0,26.8-2.8,40.3-8.4
								c-11.7,28.1-9.9,51-9,62.1c0.1,1.2,0.2,2.3,0.2,3.2l0.1,1.7l1.4-0.9c1.2-0.7,2.7-1.5,4.5-2.4c9.1-4.5,25.8-12.9,43.3-39.7
								c2.7,28.8,13,44,19.2,53.1c1.4,2,2.6,3.8,3.3,5.2l0.8,1.5l0.9-1.4c0.8-1.2,1.9-2.6,3.2-4.2c6.4-8.2,18.3-23.2,19.9-54.4
								c22.7,25.2,39.6,30.6,47.9,33.2c1.7,0.5,3.1,1,3.9,1.4l1.6,0.8l-0.1-1.8c-0.1-1.4,0-3,0.1-4.8c0.4-7.9,1-20.9-12.5-52
								c18.6,8.6,31.1,9.8,39.9,9.8c4.3,0,8.1-0.3,11.8-0.6c2.5-0.2,4.8-0.4,7.2-0.5l1.6-0.1l-0.8-1.4c-1.4-2.6-2.7-5.2-3.9-7.6
								c-5.6-11.5-10.9-22.4-32.5-40.4c29.6-4,40.9-12.3,50-19c1.7-1.2,3.3-2.4,4.9-3.5l1.3-0.9l-1.4-0.8c-2.3-1.3-4.6-3-7.1-4.7
								c-9.5-6.6-21.2-14.7-47.5-18.2c24.2-19.6,29-33.9,32.6-44.4c0.7-2,1.3-3.8,2-5.6l0.6-1.4l-1.5,0c-1.2,0-2.6,0-4,0
								c-11.5,0-28.7,0-52.6,10.3c10.3-19.7,10.3-38.6,10.4-51.3c0-2.9,0-5.4,0.1-7.4l0.1-1.8l-1.6,0.8c-1.6,0.9-3.7,1.8-6,2.9
								c-11.4,5.2-30,13.8-43.8,32.7c-0.3-24.7-12.5-42.8-20-53.8c-1.1-1.7-2.1-3.1-2.9-4.4L300,148L300,148z"/>
						</g>
<!-- 						<polygon id="XMLID_350_" class="st1" points="313.5,197.8 323,212.2 338.5,204.8 343.9,221.1 360.8,217.9 361.8,235.1 379,236.4 
							375.5,253.3 391.8,259 384,274.3 398.2,284.1 386.8,296.9 398,310 383.6,319.4 391.1,335 374.7,340.4 377.9,357.3 360.7,358.3 
							359.5,375.5 342.6,372 336.9,388.2 321.5,380.5 311.8,394.7 298.9,383.3 285.9,394.5 276.4,380.1 260.9,387.6 255.5,371.2 
							238.6,374.4 237.6,357.2 220.4,355.9 223.9,339.1 207.6,333.4 215.4,318 201.1,308.3 212.6,295.4 201.3,282.3 215.7,272.9 
							208.3,257.4 224.6,252 221.4,235 238.6,234 239.9,216.9 256.8,220.4 262.5,204.1 277.9,211.8 287.6,197.6 300.4,209.1 		"/> -->
						<g id="XMLID_344_">
							<path id="XMLID_72_" d="M299.5,150.5c2.7,12.6,9.8,48.3,3.5,56.2c-0.7,0.9-1.6,1.4-2.6,1.4c-1.3,0-2.3-0.5-3.2-1.6
								C290.5,198,296.9,163,299.5,150.5 M299.5,145.8c0,0-14.5,63.2,0.9,63.2C314.7,209.1,299.5,145.8,299.5,145.8L299.5,145.8z"/>
						</g>
						<g id="XMLID_338_">
							<path id="XMLID_68_" d="M228.7,168.8c7.5,7.8,31.3,33.6,29.4,45.4c-0.3,2-1.4,3.4-3.3,4.4c-1.1,0.6-2.2,0.8-3.3,0.8
								C239.8,219.5,231.6,185.4,228.7,168.8 M227.3,165.9c0,0,8.1,54.6,24.3,54.6c1.2,0,2.4-0.3,3.7-0.9
								C272.7,210.9,227.3,165.9,227.3,165.9L227.3,165.9z"/>
						</g>
						<g id="XMLID_331_">
							<path id="XMLID_64_" d="M403.9,291.1c12.3,0,28.7,3.1,36.5,4.6c-8.2,1.8-26.1,5.4-38.6,5.4c-5.8,0-12.7-0.8-12.7-4.6
								C389,292.1,397.1,291.1,403.9,291.1 M403.9,290.1c-9,0-15.8,1.6-15.8,6.5c0,4.2,5.8,5.6,13.7,5.6c16.8,0,43.2-6.4,43.2-6.4
								S420.7,290.1,403.9,290.1L403.9,290.1z"/>
						</g>
						<g id="XMLID_325_">
							<path id="XMLID_59_" d="M297.7,385.8c1.4,0,2.5,0.6,3.4,1.7c6.6,8.5,0.1,42-2.5,53.9c-2.8-12-10-46.1-3.8-54.1
								C295.6,386.3,296.6,385.8,297.7,385.8 M297.7,384.8c-14.7,0,0.9,61,0.9,61S313.5,384.8,297.7,384.8L297.7,384.8z"/>
						</g>
						<g id="XMLID_319_">
							<path id="XMLID_55_" d="M252.5,372.6c0.7,0,1.5,0.2,2.2,0.6c1.7,0.9,2.6,2.3,2.9,4.1c1.8,11.8-21.6,38.5-29.5,47
								C232.2,407.1,242.5,372.6,252.5,372.6 M252.5,371.6c-13.9,0-26.2,56.1-26.2,56.1s45.1-46.6,28.9-55.4
								C254.3,371.8,253.4,371.6,252.5,371.6L252.5,371.6z"/>
						</g>
						<g id="XMLID_314_">
							<path id="XMLID_51_" d="M218.2,337.7c2,0,3.3,0.7,4.1,2.2c0.7,1.4,0.8,2.8,0,4.3c-4.5,9.6-35.1,17.8-45.8,20.4
								C184.6,357.5,207.6,337.7,218.2,337.7 M218.2,336.7c-13.5,0-45.2,29.8-45.2,29.8s57.7-12.5,50.2-27
								C222.2,337.5,220.5,336.7,218.2,336.7L218.2,336.7z"/>
						</g>
						<g id="XMLID_309_">
							<path id="XMLID_47_" d="M196.9,288.1c5.9,0,9.8,1,11.8,2.9c0.9,0.9,1.3,2,1.3,3.5c-0.1,4.8-4.8,7.2-14.2,7.2
								c-12.8,0-30.5-4.7-37.7-6.7C165.4,292.9,184,288.1,196.9,288.1 M196.9,287.1c-16.7,0-42.4,7.9-42.4,7.9s24.6,7.7,41.3,7.7
								c8.6,0,15.1-2,15.2-8.2C211,289,205,287.1,196.9,287.1L196.9,287.1z"/>
						</g>
						<g id="XMLID_304_">
							<path id="XMLID_43_" d="M175.6,222.5c10.8,3.2,43.6,13.5,47.7,23.9c0.6,1.6,0.5,3-0.4,4.4c-1.2,1.9-2.9,2.8-5.2,2.8
								C205.8,253.5,183,230.4,175.6,222.5 M172.5,220.6c0,0,30.3,34,45.3,34c2.5,0,4.6-1,6-3.2C232.8,236.7,172.5,220.6,172.5,220.6
								L172.5,220.6z"/>
						</g>
						<g id="XMLID_299_">
							<path id="XMLID_37_" d="M381.3,339.4c11.3,0,33.9,21.5,41.6,29.2c-10.9-3.2-42.7-13.2-46.6-22.8c-0.6-1.4-0.5-2.6,0.3-3.8
								C377.6,340.2,379.1,339.4,381.3,339.4 M381.3,338.4c-2.4,0-4.3,0.9-5.6,3c-8.1,13.6,50.5,29.2,50.5,29.2S395.6,338.4,381.3,338.4
								L381.3,338.4z"/>
						</g>
						<g id="XMLID_294_">
							<path id="XMLID_31_" d="M344.6,372.2c9.1,0,22.8,28.6,29.1,43.6c-8.8-7.8-33.3-30.2-32.9-40c0.1-1.2,0.5-2.1,1.5-2.8
								C343,372.5,343.8,372.2,344.6,372.2 M344.6,371.2c-1,0-2,0.3-2.9,1c-11.7,8.3,34.5,47.1,34.5,47.1S357.4,371.2,344.6,371.2
								L344.6,371.2z"/>
						</g>
						<g id="XMLID_289_">
							<path id="XMLID_25_" d="M374,172.8c-4.8,15.9-16.4,47.4-26,47.4c-0.9,0-1.7-0.3-2.5-0.8c-1.6-1-2.5-2.5-2.6-4.4
								C341.9,203.5,365.9,180.3,374,172.8 M375.9,169.7c0,0-46.4,40.8-31,50.6c1,0.6,2,0.9,3,0.9C361.4,221.2,375.9,169.7,375.9,169.7
								L375.9,169.7z"/>
						</g>
						<g id="XMLID_284_">
							<path id="XMLID_21_" d="M420.3,223.2c-8.1,8.3-30.6,30.5-40.2,30.5c-1.4,0-2.3-0.5-3-1.5c-0.7-1.1-0.8-2.2-0.4-3.5
								C379.9,239.4,409.3,227.4,420.3,223.2 M424,220.8c0,0-55.8,19.7-47.8,32c0.9,1.3,2.2,1.9,3.8,1.9
								C392.5,254.7,424,220.8,424,220.8L424,220.8z"/>
						</g>
						<circle id="XMLID_283_" class="st1" cx="217.9" cy="247.8" r="1.6"/>
						<circle id="XMLID_282_" class="st1" cx="226.3" cy="239.4" r="1.6"/>
						<circle id="XMLID_281_" class="st1" cx="245.2" cy="222.6" r="1.6"/>
						<circle id="XMLID_280_" class="st1" cx="289.3" cy="205.8" r="1.6"/>
						<circle id="XMLID_279_" class="st1" cx="312.3" cy="205.8" r="1.6"/>
						<circle id="XMLID_278_" class="st1" cx="335.4" cy="212.1" r="1.6"/>
						<circle id="XMLID_277_" class="st1" cx="356.4" cy="224.7" r="1.6"/>
						<circle id="XMLID_276_" class="st1" cx="373.2" cy="241.5" r="1.6"/>
						<circle id="XMLID_275_" class="st1" cx="383.7" cy="262.5" r="1.6"/>
						<circle id="XMLID_274_" class="st1" cx="390" cy="285.5" r="1.6"/>
						<circle id="XMLID_273_" class="st1" cx="390" cy="308.6" r="1.6"/>
						<circle id="XMLID_272_" class="st1" cx="383.7" cy="331.7" r="1.6"/>
						<circle id="XMLID_271_" class="st1" cx="371.1" cy="352.7" r="1.6"/>
						<circle id="XMLID_270_" class="st1" cx="354.3" cy="369.5" r="1.6"/>
						<circle id="XMLID_269_" class="st1" cx="333.3" cy="382" r="1.6"/>
						<circle id="XMLID_268_" class="st1" cx="310.2" cy="388.3" r="1.6"/>
						<circle id="XMLID_267_" class="st1" cx="287.2" cy="386.2" r="1.6"/>
						<circle id="XMLID_266_" class="st1" cx="264.1" cy="379.9" r="1.6"/>
						<circle id="XMLID_265_" class="st1" cx="243.1" cy="367.4" r="1.6"/>
						<circle id="XMLID_264_" class="st1" cx="226.3" cy="350.6" r="1.6"/>
						<circle id="XMLID_263_" class="st1" cx="215.8" cy="329.6" r="1.6"/>
						<circle id="XMLID_262_" class="st1" cx="209.5" cy="306.5" r="1.6"/>
						<circle id="XMLID_261_" class="st1" cx="209.5" cy="283.4" r="1.6"/>
						<circle id="XMLID_260_" class="st1" cx="215.8" cy="260.4" r="1.6"/>
						<circle id="XMLID_242_" class="st1" cx="201.2" cy="293.9" r="1.6"/>
						<circle id="XMLID_241_" class="st1" cx="297.7" cy="396.7" r="1.6"/>
						<circle id="XMLID_240_" class="st1" cx="398.4" cy="296" r="1.6"/>
						<circle id="XMLID_239_" class="st1" cx="299.8" cy="199.5" r="1.6"/>
						<circle id="XMLID_238_" class="st1" cx="266.2" cy="212.1" r="1.6"/>
						<circle id="XMLID_237_" class="st1" cx="251.5" cy="212.1" r="1.6"/>
						<circle id="XMLID_236_" class="st1" cx="350.1" cy="212.1" r="1.6"/>
						<circle id="XMLID_235_" class="st1" cx="383.7" cy="247.8" r="1.6"/>
						<circle id="XMLID_234_" class="st1" cx="383.7" cy="346.4" r="1.6"/>
						<circle id="XMLID_233_" class="st1" cx="348" cy="379.9" r="1.6"/>
						<circle id="XMLID_232_" class="st1" cx="251.5" cy="379.9" r="1.6"/>
						<circle id="XMLID_231_" class="st1" cx="215.8" cy="344.3" r="1.6"/>
					</g>
					<g id="Calque_3">
					</g>
				</g>
			</svg>